<svg version="1.1" id="Layer_2_1_" xmlns="http://www.w3.org/2000/svg" x="0" y="0" viewBox="0 0 80 75.247" xml:space="preserve"><style>.st0{fill:#6a85bd}</style><path class="st0" d="M67.556 12.446L80 .001h-.512L67.3 12.189z"/><path transform="rotate(-45.001 38.664 41.082)" class="st0" d="M6.388 40.9h64.553v.362H6.388z"/><path transform="rotate(-45.001 9.147 70.598)" class="st0" d="M2.753 70.416h12.79v.362H2.753z"/><path class="st0" d="M62.521 11.234L73.754.001h-.621L62.21 10.924zM29.795 33.978L63.773.001h-.62L29.485 33.668zM23.225 39.928L0 63.153v.621l23.536-23.535zM31.154 22.641L53.794.001h-.621l-22.329 22.33zM28.486 25.309l-.31-.31L0 53.175v.62zM53.908 15.395L69.303.001h-.513L53.651 15.139zM39.859 19.464L59.323.001h-.513L39.602 19.208z"/><path transform="rotate(-45.001 19.516 39.553)" class="st0" d="M-5.03 39.371h49.093v.362H-5.03z"/><path transform="rotate(-45.001 23.336 25.754)" class="st0" d="M-8.941 25.572h64.553v.362H-8.941z"/><path transform="rotate(-45.001 31.765 41.68)" class="st0" d="M-7.078 41.459h77.687v.439H-7.078z"/><path class="st0" d="M48.538 20.198L0 68.736v.621l48.849-48.849zM14.175 18.358L32.532.001h-.62L13.864 18.047zM7.604 24.308L0 31.912v.621l7.914-7.915zM15.533 7.02L22.552.001h-.62l-6.709 6.708zM12.555 9.378L0 21.932v.62L12.865 9.688zM24.238 3.843L28.081.001h-.512l-3.587 3.586zM21.123 6.446L0 27.569v.513l21.38-21.38zM17.588.001L0 17.589v.513L18.101.001zM41.891.001L0 41.892v.62L42.512.001zM32.918 4.578L0 37.495v.621L33.228 4.888zM1.253.001L0 1.254v.621L1.874.001zM11.234.001L0 11.235v.62L11.855.001zM6.837.001L0 6.837v.621L7.457.001z"/></svg>