<svg version="1.1" id="Layer_2" xmlns="http://www.w3.org/2000/svg" x="0" y="0" viewBox="0 0 80 75.247" xml:space="preserve"><style>.st0{fill:#6a85bd}</style><path class="st0" d="M12.444 62.802L0 75.247h.512L12.7 63.059z"/><path transform="rotate(-45.001 41.337 34.167)" class="st0" d="M9.059 33.985h64.554v.362H9.059z"/><path transform="rotate(-45.001 70.853 4.651)" class="st0" d="M64.458 4.469h12.79v.362h-12.79z"/><path class="st0" d="M17.479 64.014L6.246 75.247h.621L17.79 64.324zM50.205 41.27L16.227 75.247h.62L50.515 41.58zM56.775 35.32L80 12.095v-.621L56.464 35.009zM48.846 52.607l-22.64 22.64h.621l22.329-22.33zM51.514 49.939l.31.31L80 22.073v-.62zM26.092 59.853L10.697 75.247h.513l15.139-15.138zM40.141 55.784L20.677 75.247h.513L40.398 56.04z"/><path transform="rotate(-45.001 60.483 35.697)" class="st0" d="M35.938 35.515h49.093v.362H35.938z"/><path transform="rotate(-45.001 56.663 49.496)" class="st0" d="M24.388 49.314h64.554v.362H24.388z"/><path transform="rotate(-45.001 48.235 33.569)" class="st0" d="M9.391 33.349h77.688v.439H9.391z"/><path class="st0" d="M31.462 55.05L80 6.512v-.621L31.151 54.74zM65.825 56.89L47.468 75.247h.62l18.048-18.046zM72.396 50.94L80 43.336v-.621l-7.914 7.915zM64.467 68.228l-7.019 7.019h.62l6.709-6.708zM67.445 65.87L80 53.316v-.62L67.135 65.56zM55.762 71.405l-3.843 3.842h.512l3.587-3.586zM58.877 68.802L80 47.679v-.513l-21.38 21.38zM62.412 75.247L80 57.659v-.513L61.899 75.247zM38.109 75.247L80 33.356v-.62L37.488 75.247zM47.082 70.67L80 37.753v-.621L46.772 70.36zM78.747 75.247L80 73.994v-.621l-1.874 1.874zM68.766 75.247L80 64.013v-.62L68.145 75.247zM73.163 75.247L80 68.411v-.621l-7.457 7.457z"/></svg>